<?xml version="1.0" encoding="UTF-8"?> <svg xmlns="http://www.w3.org/2000/svg" xmlns:xlink="http://www.w3.org/1999/xlink" width="1127" height="786" viewBox="0 0 1126.64 785.89"><style><![CDATA[.B{opacity:.1}.C{fill:#6c63ff}.D{fill:#c0bccf}.E{fill:#fff}.F{opacity:.5}.G{fill:#cb919b}.H{fill:#474059}.I{stroke-miterlimit:10}.J{fill:#d6e6f9}.K{fill:#ffced8}]]></style><defs><linearGradient id="A" x1="470.02" y1="336" x2="470.02" y2="244" gradientUnits="userSpaceOnUse"><stop offset="0" stop-color="gray" stop-opacity=".25"></stop><stop offset=".54" stop-color="gray" stop-opacity=".12"></stop><stop offset="1" stop-color="gray" stop-opacity=".1"></stop></linearGradient><linearGradient id="B" x1="654.76" y1="727" x2="654.76" y2="172" xlink:href="#A"></linearGradient><path id="C" d="M232.84 358.95h148v51h-148z"></path><path id="D" d="M185.16 354.1c-1.93 5.92 3.17 26.58 3.17 26.58S204.66 367 206.6 361.1c1.933-5.918-1.297-12.282-7.215-14.215s-12.282 1.297-14.215 7.215z"></path><path id="E" d="M156.73 381.07c1.6 6 17.1 20.6 17.1 20.6s6.28-20.34 4.7-26.36a11.28 11.28 0 0 0-13.785-8.015 11.28 11.28 0 0 0-8.015 13.785z"></path><path id="F" d="M139.2 437.34c4.4 4.4 25.16 9.14 25.16 9.14s-4.84-20.73-9.26-25.12a11.28 11.28 0 0 0-15.9 16z"></path><path id="G" d="M135.5 482.95c3.6 5.07 23.26 13.26 23.26 13.26s-1.27-21.25-4.88-26.32c-3.606-5.075-10.645-6.266-15.72-2.66s-6.266 10.645-2.66 15.72z"></path><path id="H" d="M195.96 410.17c-5.6 2.74-26.76.54-26.76.54s11.26-18.06 16.86-20.76c5.592-2.737 12.343-.422 15.08 5.17s.422 12.343-5.17 15.08z"></path><path id="I" d="M190.98 463.4c-6.16.93-25.66-7.45-25.66-7.45s16.15-13.86 22.3-14.8 11.904 3.295 12.84 9.45-3.295 11.904-9.45 12.84z"></path><path id="J" d="M179.03 514.47c-5.9 2-26.6-3-26.6-3s13.58-16.4 19.5-18.36a11.28 11.28 0 0 1 14.255 7.145 11.28 11.28 0 0 1-7.145 14.255z"></path><path id="K" d="M500.84 188.95h72v3h-72z"></path><path id="L" d="M580.32 432.45s-31 19-38 27-4 40 0 53l29 92h25s-8-49-5-53-6-75-6-75z"></path><path id="M" d="M698.32 432.45s31 19 38 27 4 40 0 53l-29 92h-25s8-49 5-53 6-75 6-75z"></path><path id="N" d="M679.38 512.3c-35.77 1.58-95.27 8.24-104.3-1.64-14.55-15.93-9.4-30.27-1.88-39 2.94-3.43 5.58-9.17 7.72-14.9.72-1.94 1.4-3.87 2-5.7 2.3-7.13 10-12.05 18.7-12.05h72.23c8.75 0 16.45 5 18.72 12.13a32.09 32.09 0 0 0 4.6 9.35 22.64 22.64 0 0 0 3.69 4c3.64 3.1 6 9.75 7.53 17.08 3.23 15.52-10.45 29.92-29.02 30.74z"></path><path id="O" d="M587.1 617.2c-3.13-.63-11.3-2.43-14.47-4.84a1.59 1.59 0 0 0-2.4.67l-4.9 11.4s-20-9-21 12c-.58 12.25 5.64 16.67 10.93 18.23a41.14 41.14 0 0 1 13.07 6.27c4.8 3.58 12.14 7.25 20.46 5.27a19.5 19.5 0 0 1 5.13-.5c3.73.12 10.16-1 9.45-10.3 0 0-6-24-4-28 1.26-2.52.93-9 .52-13.46a1.11 1.11 0 0 0-2-.51 8.8 8.8 0 0 1-7.71 4 14 14 0 0 1-3.08-.25z"></path><path id="P" d="M691.58 617.2c3.13-.63 11.3-2.43 14.47-4.84a1.59 1.59 0 0 1 2.4.67l4.87 11.4s20-9 21 12c.58 12.25-5.64 16.67-10.93 18.23a41.14 41.14 0 0 0-13 6.29c-4.8 3.58-12.14 7.25-20.46 5.27a19.5 19.5 0 0 0-5.13-.5c-3.73.12-10.16-1-9.45-10.3 0 0 6-24 4-28-1.26-2.52-.93-9-.52-13.46a1.11 1.11 0 0 1 2-.51 8.8 8.8 0 0 0 7.71 4 14 14 0 0 0 3.04-.27z"></path><path id="Q" d="M636.4 182.05c-.76 9.4-.46 20.15 6.5 26.54 3.42 3.14 8 4.7 12.5 5.8a79.8 79.8 0 0 0 14.41 2.13c4.44.24 9.17 0 12.9-2.37 7.64-4.93 7.46-15.9 10.52-24.46 2.16-6.06 6.22-11.23 9.12-17 5.28-10.44 6.52-23.27 1.6-33.9s-16.55-18.24-28.17-16.85a49.13 49.13 0 0 0-11 3.07c-8.42 3.08-15.05-5.63-23.47-2.55-4.6 1.68-22.88 3.53-24 9-1.33 6.5 16.36 22.7 18.27 28.4 2.5 7.33.83 14.68.83 22.18z"></path><path id="R" d="M647.23 493.66c74 2.58 76.44-25.77 76.44-25.77l-4.78-78.6c-1.2-122.43-71.66-104.4-71.66-104.4s-70.47-18-71.66 104.4l-4.78 78.6s2.4 28.35 76.44 25.77z"></path><path id="S" d="M647.23 538.02h80l6-11.94c3.58-20.3-9.55-21.5-9.55-21.5H570.8s-13.14 1.2-9.55 21.5l6 11.94z"></path><path id="T" d="M802.9 284.95s5.8 15.72 5.32 19.83l4.6-.48s-7.74-13.78-5.8-19.34z"></path><path id="U" d="M826.58 286.26s-9.13-4.67-13.22-.8-4.7 13.72-4.7 13.72 14.9 2.05 17.93-12.9z"></path></defs><path d="M1060.04 458.23c-39.15 53.72-26.23 130.4-3.6 191.5 7.58 20.45 16.2 42.08 12.26 64.33-4.8 27.2-27.36 47.58-50.8 58.68-42.75 20.23-93.25 17-131.5-8.5-33-22-56.23-58.56-89.87-79.5-56.3-35.05-129.4-19.4-192.05 7.37-44.33 18.93-92.9 43.3-136.1 25.83-30.4-12.3-50.87-43.6-61.64-77.08-5.2-16.16-8.84-33.7-19.2-46.35-6.16-7.52-14.3-12.76-22.67-17.14-76.4-40-174.65-15-248.7-59.63-50-30.14-81.12-88.63-94.05-150.12s-9.73-126.4-4.58-190.2C21.2 132.07 27 83.62 54.25 48 83.08 10.3 131.4-4.67 174.6 1.24s81.94 29.94 115.84 58.54c42.37 35.75 81.38 80.62 134.1 94.18 35.9 9.24 74.06 2.7 111.4-.2 62.4-4.82 124.58.73 186.38 7 59.16 6 118.73 12.7 174.76 32.37 39.65 13.92 71.08 40.23 108.4 58.2 24.33 11.72 51.1 14.44 74 29.58 28.26 18.65 53.8 51.7 45.5 91.34-7.83 37.68-44.2 57.45-64.97 85.96z" class="B C"></path><rect x="380.65" y="158.91" width="205.46" height="138.04" rx="9.61" class="H"></rect><g class="E"><path d="M384.97 175.03h196.38V287.8H384.97z"></path><ellipse cx="483.16" cy="169.2" rx="1.73" ry="1.87"></ellipse></g><g class="H"><path d="M464.84 291.95h36v38h-36z"></path><path d="M461.84 326.95h44a6 6 0 0 1 6 6 0 0 0 0 1 0 0h-56a0 0 0 0 1 0 0 6 6 0 0 1 6-6z"></path></g><g class="D"><use xlink:href="#C"></use><path d="M836.84 333.95h32v278h-32z"></path></g><path d="M232.84 358.95h148v3h-148zm604-25h32v28h-32z" class="B"></path><use xlink:href="#C" y="49" class="D"></use><g class="C"><circle cx="306.84" cy="432.95" r="9"></circle><circle cx="306.84" cy="383.95" r="9"></circle></g><use xlink:href="#C" y="100" class="D"></use><circle cx="306.84" cy="482.95" r="9" class="C"></circle><use xlink:href="#C" y="151" class="D"></use><circle cx="306.84" cy="533.95" r="9" class="C"></circle><use xlink:href="#C" y="202" class="D"></use><circle cx="306.84" cy="584.95" r="9" class="C"></circle><path d="M232.84 455.95h148v4h-148zm0-50h148v4h-148zm0 101h148v4h-148zm0 51h148v4h-148z" class="B"></path><path d="M151.6 575.24s-3.3-97.76-56.2-153c-22.2-23.18-36.78-52.62-40.64-84.48a249.26 249.26 0 0 1-1.24-45.57" fill="none" stroke="#535461" stroke-width="2" class="I"></path><path d="M20.4 257.2c3.62 10.92 33.88 36 33.88 36s9.27-38.2 5.65-49.12a20.81 20.81 0 0 0-26.32-13.2c-10.916 3.63-16.8 15.404-13.2 26.32zM7.8 328.5c9 7.2 48 11.82 48 11.82s-13-37.1-22-44.3a20.83 20.83 0 0 0-26.07 32.49zm35.7 102.85c11.38 1.68 47.4-14 47.4-14s-29.95-25.5-41.32-27.2c-11.377-1.682-21.963 6.178-23.645 17.555s6.178 21.963 17.555 23.645zM88 503.1c10.93 3.58 49.1-5.82 49.1-5.82s-25.2-30.17-36.14-33.75a20.83 20.83 0 0 0-26.285 13.285A20.83 20.83 0 0 0 87.97 503.09zm10-174.43c-5.3 10.2-39.17 30.18-39.17 30.18s-3.08-39.2 2.23-49.4A20.82 20.82 0 1 1 98 328.67zm51.02 84.56c-8.12 8.15-46.4 17.07-46.4 17.07s8.8-38.32 16.9-46.47c8.116-8.146 21.3-8.17 29.445-.055s8.17 21.3.055 29.445zm38.3 89c-6.62 9.4-42.85 24.67-42.85 24.67s2.18-39.25 8.8-48.66a20.82 20.82 0 1 1 34 24z" class="C"></path><path d="M140 534.78s30-43.64 24.74-84.7a80.24 80.24 0 0 1 9.48-49.86 135 135 0 0 1 14.11-20.27" fill="none" stroke="#535461" stroke-width="2" class="I"></path><g class="C"><use xlink:href="#D"></use><use xlink:href="#E"></use><use xlink:href="#F"></use><use xlink:href="#G"></use><use xlink:href="#H"></use><use xlink:href="#I"></use><use xlink:href="#J"></use></g><g class="E"><use xlink:href="#D" class="F"></use><use xlink:href="#E" class="F"></use><use xlink:href="#F" class="F"></use><use xlink:href="#G" class="F"></use><use xlink:href="#H" class="F"></use><use xlink:href="#I" class="F"></use><use xlink:href="#J" class="F"></use></g><path d="M195.5 653.1h-85.33L88.84 522.98h128L195.5 653.1z" class="H"></path><path d="M200.5 522.98l-19.93 121.6h-71.8l1.4 8.53h85.33l21.34-130.13H200.5z" class="B"></path><path d="M229.84 329.95h643v30h-643z" class="D"></path><path d="M389.84 182.83h92v97.23h-92z" fill="#e8eaf1"></path><path d="M391.84 184.95h88v93h-88z" class="E"></path><path d="M507 309.78c1.23-9.74-1.23-10.35-1.23-10.35l-3.53-1.7a14.59 14.59 0 0 0 .07-1.72 12.31 12.31 0 0 0 0-1.43c-.35-3.84-2.63-7.2-4.25-10.7a32.07 32.07 0 0 1-2.78-10.23c-.43-4.37 0-8.9-1.5-13a23.38 23.38 0 0 0-6.23-8.55 31.54 31.54 0 0 0-10-6.78 16.5 16.5 0 0 0-11.91-.34c-3.4 1.34-6 4-8.58 6.63a30.24 30.24 0 0 0-4.85 5.9 26.67 26.67 0 0 0-2.73 8.92 147.51 147.51 0 0 0-1.68 14.91c-.27 4.16-.68 8.9-4 11.45-1.63 1.25-3.9 1.95-4.66 3.84a4.2 4.2 0 0 0-.24 1.78 7.12 7.12 0 0 0 .1 1.51c0 .3.1.58.17.87a68.05 68.05 0 0 0-2.4 7.79 205.43 205.43 0 0 0-4.93 27.39h59.32a7 7 0 0 0 1.69 0h15.43z" transform="translate(-36.68 -57.05)" fill="url(#A)"></path><path d="M419 212.34h34.05v25.7H419z" fill="#b96b6b"></path><path d="M419 212.34h34.05v25.7H419z" class="B"></path><path d="M454.25 239.22l-13.14 18.52-13.8-1.2s-17.92 1.2-6-12.55c5.74-6.6 7.62-12.1 8-16a12.43 12.43 0 0 0-.85-6.67l14.94-1.8a11.14 11.14 0 0 0-.24 6.23c1.94 7.74 11.08 13.45 11.08 13.45z" fill="#ffb9b9"></path><path d="M443.25 225.74a14.93 14.93 0 0 1-13.84 2.21 12.43 12.43 0 0 0-.85-6.67l14.94-1.8a11.14 11.14 0 0 0-.25 6.25z" class="B"></path><circle cx="434.23" cy="213.23" r="14.94" fill="#ffb9b9"></circle><path d="M435.13 252.95s5.38-6.57 5.38-11.95a12.08 12.08 0 0 1 7.17-6c5.38-1.8 4.78 0 4.78 0l3.58 14.34-1.2 25.7.6 3h-44.22l3-11.95-.6-10.13 2.4-15.53 7.17-4.18 5.38 7.17z" class="B"></path><path d="M435.13 253.56s5.38-6.57 5.38-11.95a12.08 12.08 0 0 1 7.17-6c5.38-1.8 4.78 0 4.78 0l3.58 14.34-1.2 25.7.6 3h-44.22l3-11.95-.6-10.16 2.4-15.53 7.17-4.18 5.38 7.17z" fill="#fec5d9"></path><path d="M426.77 235.04l-18.52 3s-3-.6-6.57 13.74a204 204 0 0 0-4.78 26.88H420s1.4-23.9 5-25.7l5-7.73s-8-.63-6.82-4.8 3.6-5.4 3.6-5.4z" class="B"></path><path d="M426.17 235.04l-18.52 3s-3-.6-6.57 13.74a204 204 0 0 0-4.76 26.87h23.1s1.4-23.9 5-25.7l5-7.73s-8-.63-6.82-4.8 3.57-5.38 3.57-5.38z" fill="#747b9c"></path><path d="M447.68 233.25l19.7 9.56s2.4.6 1.2 10.16l1.2 25.7h-21.2a76.61 76.61 0 0 0 .9-24.49 163.7 163.7 0 0 1-1.79-20.92z" class="B"></path><path d="M448.32 233.25l19.7 9.56s2.4.6 1.2 10.16l1.2 25.7h-21.24a76.61 76.61 0 0 0 .9-24.49 163.7 163.7 0 0 1-1.75-20.92z" fill="#747b9c"></path><path d="M429.32 206.7c-.26 2.42-1.92 4.4-3.3 6.42s-2.58 4.5-1.8 6.8c.3.9.9 1.7 1.1 2.63.36 1.6-.45 3.25-.3 4.88.2 2.24 2.1 3.9 3.14 5.88 2.22 4.2.52 9.38-1.88 13.46s-5.54 7.95-6.33 12.62c-.73 4.32.67 8.7 2.18 12.8a4 4 0 0 1 .34 2.57c-.46 1.38-2.2 1.8-3.65 1.9a38.48 38.48 0 0 1-4.79 0 4 4 0 0 1-1.75-.37c-1.1-.6-1.43-2-1.84-3.16s-1.3-2.48-2.56-2.35c-.82.1-1.46.8-2.27.93a2.34 2.34 0 0 1-2-.82c-1.5-1.6-1.13-4.2-.15-6.17s2.48-3.67 3.13-5.76c1.6-5.2-2.42-10.35-3.27-15.73a5.08 5.08 0 0 1 .14-2.64c.73-1.86 2.94-2.55 4.52-3.77 3.23-2.5 3.63-7.16 3.9-11.24a146.65 146.65 0 0 1 1.56-14.63 26.43 26.43 0 0 1 2.64-8.75 29.61 29.61 0 0 1 4.7-5.79c2.46-2.56 5-5.18 8.32-6.5a15.8 15.8 0 0 1 11.54.33 30.55 30.55 0 0 1 9.71 6.71 22.94 22.94 0 0 1 6 8.39c1.47 4.05 1 8.5 1.45 12.8a31.79 31.79 0 0 0 2.69 10c1.57 3.44 3.78 6.73 4.12 10.5.27 3-.7 6-1.2 8.95-.88 5.17-.35 10.46.17 15.67a12.61 12.61 0 0 0 .78 3.69 13.19 13.19 0 0 0 3.56 4.27 1.53 1.53 0 0 1 .63 1 1.21 1.21 0 0 1-.47.88c-1.8 1.6-4.94.42-6.9 1.85a11.09 11.09 0 0 0-1.49 1.58 6.72 6.72 0 0 1-11.51-3.12c-.5-2.34.25-4.74.54-7.12.9-7.5-2.94-14.65-6-21.56-1.44-3.23-2.75-6.73-2.22-10.23.43-2.8 2-5.28 3.15-7.88 2.3-5.2 3-11.27 1-16.6a16.45 16.45 0 0 0-8.46-9.21c-1.42-.64-3.44-1.52-4.93-.66-2.45 1.4-1.7 4.32-1.9 6.56z" class="B"></path><path d="M429.32 206.1c-.26 2.42-1.92 4.4-3.3 6.42s-2.58 4.5-1.8 6.8c.3.9.9 1.7 1.1 2.63.36 1.6-.45 3.25-.3 4.88.2 2.24 2.1 3.9 3.14 5.88 2.22 4.2.52 9.38-1.88 13.46s-5.54 7.95-6.33 12.62c-.73 4.32.67 8.7 2.18 12.8a4 4 0 0 1 .34 2.57c-.46 1.38-2.2 1.8-3.65 1.9a38.48 38.48 0 0 1-4.79 0 4 4 0 0 1-1.75-.37c-1.1-.6-1.43-2-1.84-3.16s-1.3-2.48-2.56-2.35c-.82.1-1.46.8-2.27.93a2.34 2.34 0 0 1-2-.82c-1.5-1.6-1.13-4.2-.15-6.17s2.48-3.67 3.13-5.76c1.6-5.2-2.42-10.35-3.27-15.73a5.08 5.08 0 0 1 .14-2.64c.73-1.86 2.94-2.55 4.52-3.77 3.23-2.5 3.63-7.16 3.9-11.24a146.65 146.65 0 0 1 1.62-14.64 26.43 26.43 0 0 1 2.64-8.75 29.61 29.61 0 0 1 4.7-5.79c2.46-2.56 5-5.18 8.32-6.5a15.8 15.8 0 0 1 11.54.33 30.55 30.55 0 0 1 9.69 6.65 22.94 22.94 0 0 1 6 8.39c1.47 4.05 1 8.5 1.45 12.8a31.79 31.79 0 0 0 2.69 10c1.57 3.44 3.78 6.73 4.12 10.5.27 3-.7 6-1.2 8.95-.88 5.17-.35 10.46.17 15.67a12.61 12.61 0 0 0 .76 3.71 13.19 13.19 0 0 0 3.56 4.27 1.53 1.53 0 0 1 .63 1 1.21 1.21 0 0 1-.47.88c-1.8 1.6-4.94.42-6.9 1.85a11.09 11.09 0 0 0-1.49 1.58 6.72 6.72 0 0 1-11.51-3.12c-.5-2.34.25-4.74.54-7.12.9-7.5-2.94-14.65-6-21.56-1.44-3.23-2.75-6.73-2.22-10.23.43-2.8 2-5.28 3.15-7.88 2.3-5.2 3-11.27 1-16.6a16.45 16.45 0 0 0-8.46-9.21c-1.42-.64-3.44-1.52-4.93-.66-2.47 1.45-1.72 4.38-1.92 6.6z" fill="#b96b6b"></path><g fill="#e8eaf1"><use xlink:href="#K"></use><use xlink:href="#K" y="8"></use><use xlink:href="#K" y="16"></use><use xlink:href="#K" y="24"></use><use xlink:href="#K" y="32"></use><use xlink:href="#K" y="40"></use><use xlink:href="#K" y="48"></use><use xlink:href="#K" y="56"></use><use xlink:href="#K" y="64"></use><use xlink:href="#K" y="72"></use><use xlink:href="#K" y="80"></use></g><path d="M792.87 482.83a73 73 0 0 0 4.26-43.83 374 374 0 0 1-7.13-53.25c-1.14-17.15-3.64-28.26-6.37-35.46 0 0 1.05-23.34-14.76-35.5s-52.7-31.45-52.7-31.45l3.7-15.07h-.15a14.48 14.48 0 0 0 3.17-1.45 13.76 13.76 0 0 0 2.85-2.37c6.24-5.46 6.33-15.48 9.3-23.46 2.28-6.14 6.55-11.4 9.6-17.22 5.57-10.6 6.87-23.6 1.7-34.4s-17.45-18.53-29.7-17.14a53.37 53.37 0 0 0-11.56 3.11c-8.87 3.12-15.87-5.7-24.74-2.58-4.45 1.57-21.06 3.27-24.66 7.84a4.1 4.1 0 0 0-1.7 2.3c-.94 4.44 7.2 13.33 13.22 20.43a32.54 32.54 0 0 0-7.42 20.66V225a32.74 32.74 0 0 0 9.95 23.43 157.33 157.33 0 0 1-2.36 14.62h-.73s-4.22 18.26-17.92 18.26c-3.66 0-8.66-.22-14-.53a146.38 146.38 0 0 0-47.83 5.51c-5.34 1.5-11.22 1.62-16.14-1.93-11.76-8.5-24.42-30.1-26.15-33.12 1.32-8.77 1.14-24.83-17.07-27.75-21.35-3.42-20.18 21.32-7.9 37.06a9.8 9.8 0 0 0-.6 2.44c-1.05 13.2 11.6 37.54 14.76 40.58S537 325.9 559.1 331s38 7.1 39 32.47 22.14 51.74 11.6 81.17c-6.33 17.66-4.68 26.9-2.35 31.48l-.57 1.8c-2.4 7.3-5.38 14.6-8.68 19-.76 1-1.5 2.08-2.2 3.2-8.58 5.56-17.54 11.78-21 15.57-7.38 8.12-4.22 40.58 0 53.77l30.57 93.34h1l1.38 8.64a9.88 9.88 0 0 1-1-.62 1.71 1.71 0 0 0-2.53.68l-5.15 11.5s-21.08-9.1-22.16 12.2v2.44c-.05 11.33 6.2 15.55 11.54 17.07a44.11 44.11 0 0 1 13.74 6.38c5.07 3.64 12.8 7.36 21.57 5.34a21.33 21.33 0 0 1 5.41-.5c3.8.1 10.2-1 10-9.46a16.38 16.38 0 0 0 0-2c-.04-.666-4.45-17.13-4.64-25a5.85 5.85 0 0 1 .42-2.34c.75-1.44 1-4.16.93-7.07a74.15 74.15 0 0 0-.39-7.61 1.18 1.18 0 0 0-2.15-.51l-.17.23-2.82-9.36h1.42s-8.45-49.8-5.3-53.8c2.07-2.65-1.27-34.36-3.83-56 25.68 1.63 66.6-2.9 94.6-4.3a35.84 35.84 0 0 0 15.29-4.26c-2.53 20.52-7.23 61.53-4.87 64.56 3.16 4.06-5.27 53.77-5.27 53.77h1.27l-.46 1.52h.16l-2.36 7.87-.17-.23a1.18 1.18 0 0 0-2.15.51 74.15 74.15 0 0 0-.39 7.61c0 2.9.2 5.63.93 7.07a5.84 5.84 0 0 1 .42 2.34c-.2 7.92-4.64 25-4.64 25a16.39 16.39 0 0 0 0 2c-.2 8.5 6.2 9.58 10 9.46a21.33 21.33 0 0 1 5.41.5c8.78 2 16.5-1.7 21.57-5.34a44.11 44.11 0 0 1 13.74-6.38c5.35-1.52 11.6-5.74 11.54-17.07v-2.44c-1.1-21.3-22.2-12.18-22.2-12.18L750 671.46a1.71 1.71 0 0 0-2.53-.68 9.87 9.87 0 0 1-1 .62l1.4-8.67h1l30.57-93.34c4.22-13.2 7.38-45.66 0-53.77-3.5-3.84-12.62-10.16-21.3-15.77a197.67 197.67 0 0 1 21.29 14.76zM747.35 493l-3.35-2a15.92 15.92 0 0 0-2.53-3.29 26.67 26.67 0 0 1-2.58-2.9c-2.06-6.23-9.67-32 .48-45.3 7.37-9.68 7.93-28.38 7.35-40.72l12.68 66.08c.83 8.84-8.23 22.75-12.05 28.12z" transform="translate(-36.68 -57.05)" fill="url(#B)"></path><path d="M707.32 598.45l-4 26-24-5 6-21c1-4 1 0 1 0zm-108 21l-24 5-4-26h21s0-4 1 0l2.23 8 3.77 13z" class="J"></path><path d="M595.57 606.45h-23l-1.23-8h21s0-4 1 0l2.23 8zm87.53-.5h23l1.23-8H686.3s0-4-1 0l-2.2 8z" class="B"></path><path d="M730.32 283.45s13 1 16 48a382.18 382.18 0 0 0 6.81 52.5 74.54 74.54 0 0 1-4 43.16l-12.8 31.34s-24-20-32-19c0 0 14-19 13-30s-17-90-17-90z" class="J"></path><g fill="#5f546f"><use xlink:href="#L"></use><use xlink:href="#M"></use></g><use xlink:href="#L" class="B"></use><use xlink:href="#M" class="B"></use><path d="M633.32 179.45s0 39-14 59 64 3 64 3a20.77 20.77 0 0 1-7.5-10.5c-4.12-14.67-5.68-40.5.5-51.5 9-16-43 0-43 0z" class="K"></path><circle cx="655.84" cy="172.95" r="33" class="B"></circle><circle cx="655.84" cy="171.95" r="33" class="K"></circle><use xlink:href="#N" fill="#5f546f"></use><use xlink:href="#N" class="B"></use><use xlink:href="#O" class="B"></use><use xlink:href="#O" y="1" fill="#bc8387"></use><use xlink:href="#P" class="B"></use><use xlink:href="#P" y="1" fill="#bc8387"></use><path d="M512.32 204.45s9-29-15-33-18 31 0 44 15-11 15-11z" class="K"></path><path d="M698.32 433.45c-28 46-122-6-122-6s-2.23-1.22-3.77-5.2c.77-2.43 1.48-4.86 2.12-7.17a20.64 20.64 0 0 1 19.94-15.13h77a20.61 20.61 0 0 1 19.94 15.23 43.6 43.6 0 0 0 4.9 11.74c1 4.03 1.87 6.53 1.87 6.53z" class="B"></path><path d="M635.32 210.45h-6s-4 18-17 18c-3.47 0-8.2-.2-13.3-.53a133.92 133.92 0 0 0-45.38 5.43c-5.07 1.47-10.64 1.6-15.3-1.9-12-9-25-33-25-33s-23-1-24 12 11 37 14 40 3 22 24 27 36 7 37 32 21 51 11 80 1 35 1 35 94 52 122 6c0 0-11-31 0-46s6-52 6-52l36-36s1-23-14-35-50-31-50-31l3.5-14.86z" class="J"></path><use xlink:href="#Q" class="B"></use><use xlink:href="#Q" x="1" y="-1" fill="#ae767a"></use><path d="M622.84 223.44s6 2.5 23 7.5 30 0 30 0m-98.02 135.4s28 1.6 37 13.6 12 16 23 16 46 2 51 4" class="B"></path><path d="M636.48 669.4h16.72v19.1h-16.72z" class="D"></path><g class="G"><path d="M741.58 434.1h13.14v96.74h-13.14z"></path><path d="M720.08 529.65h28.66v3.58h-28.66zM536.15 434.1h13.14v96.74h-13.14z"></path><path d="M538.54 529.65h28.66v3.58h-28.66z"></path></g><path d="M632.9 535.63h27.47v117.05H632.9z" class="D"></path><use xlink:href="#R" class="G"></use><use xlink:href="#R" class="B E"></use><path d="M645.23 488.75c70.58 2.46 72.85-24.57 72.85-24.57l-4.55-74.93c-1.14-116.7-68.3-99.5-68.3-99.5s-67.16-17.2-68.3 99.5l-4.55 74.93s2.27 27.03 72.85 24.57z" class="G"></path><rect x="630.51" y="456.8" width="29.86" height="51.36" rx="12.5" class="D"></rect><path d="M660.32 648.5v4.17H632.9v-4.14l2.4-.63h22.7z" class="B"></path><path d="M534.96 688.5s-11.95-9.55 100.36-39.4H658s96.7 23.86 97.9 39.4h-14.33s-52.55-15.55-76.44-15.55-95.55 2.4-117 15.53z" class="D"></path><path d="M539.6 419.77h5.05a13 13 0 0 1 13 13v6.1a0 0 0 0 1 0 0H526.6a0 0 0 0 1 0 0v-6.1a13 13 0 0 1 13-13zm205.4 0h5.05a13 13 0 0 1 13 13v6.1a0 0 0 0 1 0 0H732a0 0 0 0 1 0 0v-6.1a13 13 0 0 1 13-13z" class="G"></path><g fill="#5a5773"><circle cx="540.93" cy="696.86" r="8.36"></circle><circle cx="644.84" cy="696.86" r="8.36"></circle><circle cx="749.94" cy="696.86" r="8.36"></circle></g><path d="M632.9 535.63h27.47v4.78H632.9z" class="B"></path><use xlink:href="#S" class="G"></use><use xlink:href="#S" class="B E"></use><path d="M647.23 538.02h80l6-10.24c3.58-17.4-9.55-18.43-9.55-18.43H570.8s-13.14 1-9.55 18.43l6 10.24z" class="G"></path><path d="M808.32 300.42s-9.13-3.1-13.52 5a14.68 14.68 0 0 0 .19 14.13c2.9 5.22 8.83 12 20.1 11.4 9.56-.5 12.73-7.8 13.6-14.6a15 15 0 0 0-19.9-16z" class="C"></path><path d="M796.94 320.23a14.68 14.68 0 0 1-.19-14.13c4.4-8 13.52-5 13.52-5l.47-.17a14.85 14.85 0 0 1 10.73.24 14.86 14.86 0 0 0-12.66-1.21l-.47.17s-9.13-3.1-13.52 5a14.68 14.68 0 0 0 .19 14.13 21.94 21.94 0 0 0 10.31 9.77 22.63 22.63 0 0 1-8.38-8.8z" class="B E"></path><path d="M803.62 304.3s3.38 2.66 11.6 0" opacity=".2"></path><use xlink:href="#T" class="C"></use><use xlink:href="#T" opacity=".2"></use><use xlink:href="#U" class="C"></use><use xlink:href="#U" class="B E"></use><path d="M808.65 299.17s2.4-11.45 17.93-12.9" fill="none" stroke="#6c63ff" class="I"></path></svg> 